<svg id="visual" viewBox="0 0 900 600" width="900" height="600" xmlns="http://www.w3.org/2000/svg" xmlns:xlink="http://www.w3.org/1999/xlink" version="1.1"><rect x="0" y="0" width="900" height="600" fill="#00121f"></rect><path d="M0 434L25 435.2C50 436.3 100 438.7 150 443.2C200 447.7 250 454.3 300 457.5C350 460.7 400 460.3 450 461.2C500 462 550 464 600 457.2C650 450.3 700 434.7 750 427.8C800 421 850 423 875 424L900 425L900 601L875 601C850 601 800 601 750 601C700 601 650 601 600 601C550 601 500 601 450 601C400 601 350 601 300 601C250 601 200 601 150 601C100 601 50 601 25 601L0 601Z" fill="#001f43"></path><path d="M0 466L25 465C50 464 100 462 150 463.2C200 464.3 250 468.7 300 463.8C350 459 400 445 450 438.5C500 432 550 433 600 435.8C650 438.7 700 443.3 750 452C800 460.7 850 473.3 875 479.7L900 486L900 601L875 601C850 601 800 601 750 601C700 601 650 601 600 601C550 601 500 601 450 601C400 601 350 601 300 601C250 601 200 601 150 601C100 601 50 601 25 601L0 601Z" fill="#1b2457"></path><path d="M0 474L25 478.2C50 482.3 100 490.7 150 495.3C200 500 250 501 300 504.3C350 507.7 400 513.3 450 510.8C500 508.3 550 497.7 600 497.8C650 498 700 509 750 511.5C800 514 850 508 875 505L900 502L900 601L875 601C850 601 800 601 750 601C700 601 650 601 600 601C550 601 500 601 450 601C400 601 350 601 300 601C250 601 200 601 150 601C100 601 50 601 25 601L0 601Z" fill="#3c2466"></path><path d="M0 540L25 536.2C50 532.3 100 524.7 150 521.3C200 518 250 519 300 521.8C350 524.7 400 529.3 450 527.8C500 526.3 550 518.7 600 516.7C650 514.7 700 518.3 750 519C800 519.7 850 517.3 875 516.2L900 515L900 601L875 601C850 601 800 601 750 601C700 601 650 601 600 601C550 601 500 601 450 601C400 601 350 601 300 601C250 601 200 601 150 601C100 601 50 601 25 601L0 601Z" fill="#5f1d6f"></path><path d="M0 573L25 573.5C50 574 100 575 150 574.7C200 574.3 250 572.7 300 570.8C350 569 400 567 450 567.3C500 567.7 550 570.3 600 567.3C650 564.3 700 555.7 750 554.7C800 553.7 850 560.3 875 563.7L900 567L900 601L875 601C850 601 800 601 750 601C700 601 650 601 600 601C550 601 500 601 450 601C400 601 350 601 300 601C250 601 200 601 150 601C100 601 50 601 25 601L0 601Z" fill="#830070"></path></svg>